<svg width="32" height="32" viewBox="0 0 32 32" fill="none" xmlns="http://www.w3.org/2000/svg">
<path id="Vector" d="M17.1493 0.0421954C14.86 -0.12445 12.5617 0.203771 10.4106 1.00455C8.25946 1.80532 6.30597 3.05988 4.68293 4.68293C3.05988 6.30597 1.80532 8.25946 1.00455 10.4106C0.203771 12.5617 -0.12445 14.86 0.0421954 17.1493C0.6183 25.6148 8.01164 32 16.4932 32H22.3983C23.2784 32 23.9985 31.2799 23.9985 30.3997C23.9985 29.5196 23.2784 28.7994 22.3983 28.7994H16.5252C10.5561 28.7994 5.08311 24.9267 3.59484 19.1497C1.21041 9.86798 9.85198 1.21041 19.1337 3.61084C24.9267 5.08311 28.7994 10.5561 28.7994 16.5252V18.2855C28.7994 19.5497 27.6632 20.798 26.399 20.798C25.1348 20.798 23.9985 19.5497 23.9985 18.2855V16.2851C23.9985 12.2684 21.15 8.65176 17.1813 8.09166C15.9186 7.9039 14.6293 8.0205 13.4208 8.43175C12.2123 8.84299 11.1195 9.53699 10.2334 10.456C9.3473 11.3749 8.69356 12.4923 8.32659 13.715C7.95962 14.9377 7.89005 16.2303 8.12366 17.4854C8.40434 18.9976 9.11524 20.3968 10.1711 21.5151C11.227 22.6335 12.5831 23.4235 14.0767 23.7905C17.0213 24.4786 19.8218 23.5345 21.6621 21.6621C23.0864 23.6145 25.9349 24.6387 28.5434 23.5985C30.6878 22.7503 32 20.5579 32 18.2535V16.5092C32 8.01164 25.6148 0.6183 17.1493 0.0421954ZM15.9971 20.798C13.3406 20.798 11.1962 18.6536 11.1962 15.9971C11.1962 13.3406 13.3406 11.1962 15.9971 11.1962C18.6536 11.1962 20.798 13.3406 20.798 15.9971C20.798 18.6536 18.6536 20.798 15.9971 20.798Z" fill="#F5F5F5"/>
</svg>
