<svg width="124" height="186" viewBox="0 0 124 186" fill="none" xmlns="http://www.w3.org/2000/svg">
<g id="Frame 15">
<rect id="Rectangle 12" x="12" y="11" width="100" height="164" fill="#CBCBCB"/>
<path id="Union" fill-rule="evenodd" clip-rule="evenodd" d="M107.968 15.0299C105.643 12.8498 102.489 11.625 99.2 11.625H24.8C21.5113 11.625 18.3573 12.8498 16.0319 15.0299C13.7064 17.21 12.4 20.1669 12.4 23.25V162.75C12.4 165.833 13.7064 168.79 16.0319 170.97C18.3573 173.15 21.5113 174.375 24.8 174.375H99.2C102.489 174.375 105.643 173.15 107.968 170.97C110.294 168.79 111.6 165.833 111.6 162.75V23.25C111.6 20.1669 110.294 17.21 107.968 15.0299ZM7.26375 6.80977C11.9147 2.44955 18.2226 0 24.8 0H99.2C105.777 0 112.085 2.44955 116.736 6.80977C121.387 11.17 124 17.0837 124 23.25V162.75C124 168.916 121.387 174.83 116.736 179.19C112.085 183.55 105.777 186 99.2 186H24.8C18.2226 186 11.9147 183.55 7.26375 179.19C2.61285 174.83 0 168.916 0 162.75V23.25C0 17.0837 2.61285 11.17 7.26375 6.80977ZM70.7686 159.345C68.4432 161.525 65.2892 162.75 62.0005 162.75C58.7118 162.75 55.5578 161.525 53.2324 159.345C50.9069 157.165 49.6005 154.208 49.6005 151.125C49.6005 148.042 50.9069 145.085 53.2324 142.905C55.5578 140.725 58.7118 139.5 62.0005 139.5C65.2892 139.5 68.4432 140.725 70.7686 142.905C73.0941 145.085 74.4005 148.042 74.4005 151.125C74.4005 154.208 73.0941 157.165 70.7686 159.345Z" fill="#F5F5F5"/>
<path id="Vector" d="M52 75H70M52 83H70M52 91H62M82 81C82 92.046 73.046 101 62 101H42V81C42 69.954 50.954 61 62 61C73.046 61 82 69.954 82 81Z" stroke="#F5F5F5" stroke-width="4" stroke-linecap="round" stroke-linejoin="round"/>
</g>
</svg>
