<svg width="12" height="162" viewBox="0 0 12 162" fill="none" xmlns="http://www.w3.org/2000/svg">
<path id="Line 4" d="M6 0.666667C3.05448 0.666666 0.666667 3.05448 0.666667 6C0.666666 8.94552 3.05448 11.3333 6 11.3333C8.94552 11.3333 11.3333 8.94552 11.3333 6C11.3333 3.05448 8.94552 0.666667 6 0.666667ZM5.99999 150.667C3.05447 150.667 0.666655 153.054 0.666655 156C0.666654 158.946 3.05447 161.333 5.99999 161.333C8.94551 161.333 11.3333 158.946 11.3333 156C11.3333 153.054 8.94551 150.667 5.99999 150.667ZM5 6L4.99999 156L6.99999 156L7 6L5 6Z" fill="#909090"/>
</svg>
