<svg width="48" height="72" viewBox="0 0 48 72" fill="none" xmlns="http://www.w3.org/2000/svg">
<path id="Union" fill-rule="evenodd" clip-rule="evenodd" d="M41.7941 5.81802C40.8939 4.97411 39.673 4.5 38.4 4.5H9.6C8.32696 4.5 7.10606 4.97411 6.20589 5.81802C5.30571 6.66193 4.8 7.80653 4.8 9V63C4.8 64.1935 5.30571 65.3381 6.20589 66.182C7.10606 67.0259 8.32696 67.5 9.6 67.5H38.4C39.673 67.5 40.8939 67.0259 41.7941 66.182C42.6943 65.3381 43.2 64.1935 43.2 63V9C43.2 7.80653 42.6943 6.66193 41.7941 5.81802ZM2.81177 2.63604C4.61212 0.948212 7.05392 0 9.6 0H38.4C40.9461 0 43.3879 0.948212 45.1882 2.63604C46.9886 4.32387 48 6.61305 48 9V63C48 65.3869 46.9886 67.6761 45.1882 69.364C43.3879 71.0518 40.9461 72 38.4 72H9.6C7.05392 72 4.61212 71.0518 2.81177 69.364C1.01143 67.6761 0 65.3869 0 63V9C0 6.61305 1.01143 4.32387 2.81177 2.63604ZM27.3943 61.682C26.4942 62.5259 25.2733 63 24.0002 63C22.7272 63 21.5063 62.5259 20.6061 61.682C19.7059 60.8381 19.2002 59.6935 19.2002 58.5C19.2002 57.3065 19.7059 56.1619 20.6061 55.318C21.5063 54.4741 22.7272 54 24.0002 54C25.2733 54 26.4942 54.4741 27.3943 55.318C28.2945 56.1619 28.8002 57.3065 28.8002 58.5C28.8002 59.6935 28.2945 60.8381 27.3943 61.682Z" fill="#10C141"/>
</svg>
