<svg width="21" height="22" viewBox="0 0 21 22" fill="none" xmlns="http://www.w3.org/2000/svg">
<path id="Vector" d="M6.68733 1.7002H3.64276C2.91531 1.7002 2.21765 1.98917 1.70327 2.50356C1.18888 3.01795 0.899902 3.7156 0.899902 4.44305V7.18591C0.899902 14.7603 7.03979 20.9002 14.6142 20.9002H17.357C18.0845 20.9002 18.7822 20.6112 19.2965 20.0968C19.8109 19.5824 20.0999 18.8848 20.0999 18.1573V16.262C20.0998 16.0074 20.0287 15.7578 19.8948 15.5413C19.7609 15.3248 19.5693 15.1498 19.3415 15.036L16.0281 13.3793C15.8524 13.2914 15.6598 13.2423 15.4635 13.2353C15.2671 13.2283 15.0715 13.2635 14.89 13.3387C14.7084 13.4139 14.5452 13.5272 14.4112 13.6709C14.2773 13.8147 14.1758 13.9856 14.1136 14.172L13.7063 15.3967C13.5784 15.7803 13.3149 16.1041 12.9651 16.3072C12.6153 16.5102 12.2035 16.5785 11.8069 16.4993C10.2015 16.178 8.72718 15.3887 7.56963 14.2309C6.41209 13.0732 5.62313 11.5986 5.30219 9.99322C5.22295 9.59664 5.29127 9.18476 5.49431 8.835C5.69735 8.48523 6.02114 8.22166 6.40482 8.0938L7.92436 7.58637C8.25181 7.47714 8.52603 7.24845 8.69228 6.94594C8.85853 6.64343 8.9046 6.28935 8.82127 5.95437L8.01762 2.73837C7.94332 2.4418 7.77207 2.17856 7.53104 1.99047C7.29002 1.80237 6.99306 1.7002 6.68733 1.7002Z" stroke="#F5F5F5" stroke-width="1.8"/>
</svg>
