<svg width="34" height="20" viewBox="0 0 34 20" fill="none" xmlns="http://www.w3.org/2000/svg">
<path id="Vector" d="M29.75 18.5714H21.25V14.2857H18.8417C17.2833 17.7143 13.7417 20 9.91667 20C4.39167 20 0 15.5714 0 10C0 4.42857 4.39167 0 9.91667 0C13.7417 0 17.2833 2.28571 18.8417 5.71429H34V14.2857H29.75V18.5714ZM24.0833 15.7143H26.9167V11.4286H31.1667V8.57143H16.8583L16.575 7.57143C15.5833 4.71429 12.8917 2.85714 9.91667 2.85714C5.95 2.85714 2.83333 6 2.83333 10C2.83333 14 5.95 17.1429 9.91667 17.1429C12.8917 17.1429 15.5833 15.2857 16.575 12.4286L16.8583 11.4286H24.0833V15.7143ZM9.91667 14.2857C7.50833 14.2857 5.66667 12.4286 5.66667 10C5.66667 7.57143 7.50833 5.71429 9.91667 5.71429C12.325 5.71429 14.1667 7.57143 14.1667 10C14.1667 12.4286 12.325 14.2857 9.91667 14.2857ZM9.91667 8.57143C9.06667 8.57143 8.5 9.14286 8.5 10C8.5 10.8571 9.06667 11.4286 9.91667 11.4286C10.7667 11.4286 11.3333 10.8571 11.3333 10C11.3333 9.14286 10.7667 8.57143 9.91667 8.57143Z" fill="#F5F5F5"/>
</svg>
