<svg width="20" height="20" viewBox="0 0 20 20" fill="none" xmlns="http://www.w3.org/2000/svg">
<path id="Vector" d="M9.83854 0.39996C4.5706 0.39996 0.277137 4.67195 0.277137 9.91353C0.277137 11.5935 0.720956 13.2255 1.5507 14.6655L0.199951 19.5999L5.26528 18.2751C6.66427 19.0335 8.23693 19.4367 9.83854 19.4367C15.1065 19.4367 19.4 15.1647 19.4 9.92313C19.4 7.37914 18.4062 4.98875 16.602 3.19355C15.7174 2.30452 14.6638 1.59964 13.5026 1.12001C12.3414 0.640376 11.0958 0.395601 9.83854 0.39996ZM9.84819 2.00315C11.9708 2.00315 13.9583 2.82875 15.4635 4.32635C16.2021 5.06109 16.7878 5.93369 17.1868 6.89411C17.5858 7.85453 17.7904 8.88388 17.7887 9.92313C17.7887 14.2815 14.2188 17.8239 9.83854 17.8239C8.4106 17.8239 7.01161 17.4495 5.79593 16.7199L5.50648 16.5567L2.49623 17.3439L3.29704 14.4255L3.10407 14.1183C2.30707 12.8594 1.88551 11.4014 1.88839 9.91353C1.89804 5.55514 5.45824 2.00315 9.84819 2.00315ZM6.45201 5.51674C6.29764 5.51674 6.03714 5.57434 5.81523 5.81434C5.60296 6.05434 4.97583 6.63994 4.97583 7.80154C4.97583 8.97273 5.83452 10.0959 5.94065 10.2591C6.07573 10.4223 7.63874 12.8223 10.0412 13.8399C10.6104 14.0991 11.0542 14.2431 11.4016 14.3487C11.9708 14.5311 12.4918 14.5023 12.9067 14.4447C13.3698 14.3775 14.3153 13.8687 14.5179 13.3119C14.7206 12.7551 14.7206 12.2847 14.6627 12.1791C14.5951 12.0831 14.4408 12.0255 14.1995 11.9199C13.9583 11.7855 12.7813 11.2095 12.569 11.1327C12.3471 11.0559 12.212 11.0175 12.0287 11.2479C11.8743 11.4879 11.4112 12.0255 11.2761 12.1791C11.1314 12.3423 10.9963 12.3615 10.7648 12.2463C10.5139 12.1215 9.74206 11.8719 8.83512 11.0655C8.12116 10.4319 7.64839 9.65433 7.50367 9.41433C7.38789 9.18393 7.49402 9.03993 7.6098 8.93433C7.71593 8.82873 7.8703 8.65593 7.96678 8.51193C8.09221 8.37753 8.1308 8.27194 8.20799 8.11834C8.28518 7.95514 8.24658 7.82074 8.18869 7.70554C8.1308 7.59994 7.64839 6.40954 7.44578 5.93914C7.25281 5.47834 7.05985 5.53594 6.90548 5.52634C6.7704 5.52634 6.61603 5.51674 6.45201 5.51674Z" fill="#F5F5F5"/>
</svg>
